{
	"asset":{
		"generator":"Khronos glTF Blender I/O v5.1.19",
		"version":"2.0"
	},
	"scene":0,
	"scenes":[
		{
			"name":"Scene",
			"nodes":[
				0
			]
		}
	],
	"nodes":[
		{
			"mesh":0,
			"name":"Cube"
		}
	],
	"materials":[
		{
			"doubleSided":true,
			"name":"Material",
			"pbrMetallicRoughness":{
				"baseColorFactor":[
					0.800000011920929,
					0.800000011920929,
					0.800000011920929,
					1
				],
				"metallicFactor":0,
				"roughnessFactor":0.5
			}
		}
	],
	"meshes":[
		{
			"name":"Cube",
			"primitives":[
				{
					"attributes":{
						"POSITION":0,
						"NORMAL":1,
						"TEXCOORD_0":2
					},
					"indices":3,
					"material":0
				}
			]
		}
	],
	"accessors":[
		{
			"bufferView":0,
			"componentType":5126,
			"count":3693,
			"max":[
				1.5909693241119385,
				1.931477665901184,
				0.8380336165428162
			],
			"min":[
				-1.5909693241119385,
				-0.799673855304718,
				-1.0975617170333862
			],
			"type":"VEC3"
		},
		{
			"bufferView":1,
			"componentType":5126,
			"count":3693,
			"type":"VEC3"
		},
		{
			"bufferView":2,
			"componentType":5126,
			"count":3693,
			"type":"VEC2"
		},
		{
			"bufferView":3,
			"componentType":5123,
			"count":19968,
			"type":"SCALAR"
		}
	],
	"bufferViews":[
		{
			"buffer":0,
			"byteLength":44316,
			"byteOffset":0,
			"target":34962
		},
		{
			"buffer":0,
			"byteLength":44316,
			"byteOffset":44316,
			"target":34962
		},
		{
			"buffer":0,
			"byteLength":29544,
			"byteOffset":88632,
			"target":34962
		},
		{
			"buffer":0,
			"byteLength":39936,
			"byteOffset":118176,
			"target":34963
		}
	],
	"buffers":[
		{
			"byteLength":158112,
			"uri":"heart.bin"
		}
	]
}
